<?xml version="1.0" standalone="no"?>
<!DOCTYPE svg PUBLIC "-//W3C//DTD SVG 20010904//EN"
 "http://www.w3.org/TR/2001/REC-SVG-20010904/DTD/svg10.dtd">
<svg version="1.0" xmlns="http://www.w3.org/2000/svg"
 width="1339.000000pt" height="958.000000pt" viewBox="0 0 1339.000000 958.000000"
 preserveAspectRatio="xMidYMid meet">

<g transform="translate(0.000000,958.000000) scale(0.100000,-0.100000)"
fill="#000000" stroke="none">
<path d="M2770 7913 c-73 -7 -187 -36 -240 -61 -30 -15 -80 -51 -111 -82 -75
-74 -102 -143 -102 -260 -1 -135 43 -251 158 -420 30 -44 55 -85 55 -90 0 -6
-13 -50 -29 -99 l-29 -90 26 -3 c23 -3 28 -10 40 -70 l15 -67 75 -17 c62 -14
87 -15 134 -6 72 13 171 62 220 107 42 39 43 58 6 143 -10 24 -18 48 -18 53 0
5 18 18 41 29 101 52 184 180 195 301 8 77 -15 176 -52 232 -25 39 -25 57 2
57 9 0 29 13 45 29 23 24 29 38 29 73 0 59 -16 78 -123 150 -134 91 -191 106
-337 91z"/>
<path d="M5823 7194 c-51 -7 -142 -25 -203 -39 l-110 -27 0 -245 c0 -199 2
-244 13 -240 57 22 194 60 279 78 139 30 426 32 567 5 107 -21 104 -31 -16
-39 -194 -14 -461 -88 -660 -182 l-100 -47 39 -191 c21 -105 38 -196 38 -203
0 -7 -16 -16 -35 -20 -19 -3 -35 -7 -36 -8 -2 -4 -36 -481 -34 -484 1 -1 35 6
74 17 147 41 274 54 461 48 220 -7 382 -42 574 -126 27 -12 50 -20 51 -19 4 5
36 480 33 483 -13 9 -106 40 -200 65 -172 45 -302 62 -495 64 -166 1 -171 2
-140 17 51 26 209 78 304 100 107 25 409 37 523 21 41 -6 76 -9 79 -7 2 3 -18
111 -44 240 l-48 235 -29 0 -28 0 0 219 0 218 -62 16 c-187 49 -330 67 -533
66 -93 -1 -212 -7 -262 -15z m557 -20 c52 -8 137 -24 188 -36 l92 -22 0 -208
0 -208 -56 0 c-31 0 -90 9 -132 19 -139 35 -225 45 -377 45 -185 0 -350 -27
-512 -84 l-53 -18 0 227 0 227 93 22 c266 62 509 74 757 36z m235 -514 c32
-11 60 -20 62 -20 1 0 3 9 3 20 0 23 10 25 32 8 14 -12 106 -424 96 -433 -2
-2 -37 1 -78 7 -98 14 -362 4 -470 -17 -109 -21 -252 -67 -360 -115 -51 -23
-109 -41 -147 -45 l-61 -7 -11 54 c-6 29 -24 117 -39 195 l-29 142 101 46
c309 144 736 222 901 165z m45 10 c0 -5 -7 -7 -15 -4 -8 4 -15 8 -15 10 0 2 7
4 15 4 8 0 15 -4 15 -10z m-412 -611 c132 -14 272 -43 392 -81 l100 -32 0 -35
c-1 -65 -28 -402 -32 -407 -3 -2 -45 11 -94 30 -297 114 -609 136 -927 65 -53
-12 -99 -20 -101 -18 -9 10 27 434 38 441 25 17 56 8 62 -17 7 -30 9 -30 42
-6 47 32 96 55 137 62 64 11 277 10 383 -2z m-503 -29 c-36 -24 -45 -25 -45
-6 0 15 18 23 55 25 16 1 14 -3 -10 -19z"/>
<path d="M5963 7150 c-87 -9 -232 -36 -270 -51 -23 -8 -23 -11 -23 -184 0 -96
4 -175 8 -175 5 0 34 9 65 19 109 38 217 55 352 55 135 0 243 -17 352 -55 31
-10 60 -19 65 -19 5 0 7 80 6 177 l-3 177 -42 12 c-130 38 -370 58 -510 44z
m287 -20 c89 -11 162 -25 218 -42 l32 -10 0 -158 0 -158 -62 19 c-112 34 -218
49 -343 49 -125 0 -231 -15 -342 -49 l-63 -19 0 158 0 158 33 10 c147 45 360
62 527 42z"/>
<path d="M5997 7079 c-49 -14 -97 -60 -97 -92 0 -32 47 -73 103 -88 92 -25
215 7 247 64 13 24 13 30 0 54 -32 56 -160 87 -253 62z m162 -19 c40 -11 81
-47 81 -70 0 -47 -103 -87 -197 -75 -57 7 -116 40 -121 69 -5 24 34 64 72 75
42 13 124 13 165 1z"/>
<path d="M6295 6623 c-162 -21 -344 -73 -460 -130 -38 -20 -72 -37 -74 -39 -5
-4 61 -328 69 -337 4 -5 29 5 56 21 78 45 212 99 304 122 100 25 304 36 402
23 65 -9 67 -9 63 11 -3 12 -19 88 -35 169 -16 82 -32 153 -35 158 -6 9 -226
10 -290 2z m307 -153 c15 -74 27 -142 28 -151 0 -13 -22 -15 -162 -15 -218 1
-347 -29 -532 -121 -48 -24 -90 -42 -93 -39 -9 9 -65 287 -60 299 6 17 185 91
282 118 133 36 223 47 370 46 l139 -2 28 -135z"/>
<path d="M6137 6526 c-87 -24 -148 -86 -131 -133 28 -83 221 -82 309 2 68 64
32 132 -76 140 -30 3 -76 -1 -102 -9z m152 -17 c136 -48 -61 -189 -208 -149
-99 26 -65 113 59 151 38 11 113 10 149 -2z"/>
<path d="M5960 6025 c-8 -2 -54 -8 -101 -15 -47 -6 -90 -15 -96 -18 -10 -7
-38 -341 -29 -349 3 -3 33 2 68 11 223 56 445 44 658 -34 47 -17 92 -32 100
-33 12 -2 17 27 27 168 6 93 9 173 7 177 -7 12 -158 55 -254 73 -78 15 -344
29 -380 20z m399 -40 c41 -9 106 -27 145 -39 l71 -22 -2 -70 c-1 -38 -5 -110
-8 -160 l-7 -92 -58 24 c-140 57 -341 90 -480 79 -81 -6 -210 -27 -253 -41
-19 -6 -20 -3 -13 87 4 52 9 124 13 161 l5 67 72 11 c39 7 78 13 86 15 41 10
362 -5 429 -20z"/>
<path d="M6051 5947 c-46 -18 -84 -63 -75 -90 10 -32 23 -46 68 -69 110 -56
286 -18 286 63 0 57 -72 101 -175 105 -41 2 -84 -2 -104 -9z m199 -29 c24 -13
50 -33 58 -45 13 -21 12 -25 -15 -51 -49 -50 -168 -54 -249 -8 -45 25 -55 57
-27 88 26 29 50 37 123 37 49 1 77 -5 110 -21z"/>
<path d="M4830 6654 c-14 -2 -65 -9 -115 -15 -183 -22 -370 -74 -523 -145 -66
-30 -92 -39 -88 -28 3 9 9 28 12 42 10 43 -11 13 -29 -40 l-15 -47 55 -11 c30
-7 57 -9 60 -6 6 6 -5 10 -52 21 -30 7 -29 7 36 40 144 73 351 132 569 161
131 18 488 24 568 10 25 -5 42 -4 42 2 0 5 -28 12 -61 16 -63 6 -414 6 -459 0z"/>
<path d="M3398 6473 l-157 -65 15 -37 c9 -20 38 -91 66 -158 l50 -122 -30 -42
c-29 -38 -87 -74 -153 -94 -13 -4 -109 -49 -214 -100 -186 -92 -306 -135 -413
-150 -63 -8 -62 -6 -163 -260 -61 -153 -66 -171 -52 -182 61 -47 286 39 533
202 113 75 282 198 356 261 55 47 227 140 232 126 1 -5 9 -17 16 -27 12 -17
22 -14 167 45 85 35 156 65 158 67 5 4 -242 603 -249 602 -3 0 -76 -30 -162
-66z m143 -173 c19 -11 27 -40 11 -40 -5 0 -27 -16 -49 -34 -44 -39 -63 -34
-63 16 0 52 53 83 101 58z"/>
<path d="M6975 6216 c-27 -6 -50 -16 -50 -21 0 -23 28 -105 36 -105 12 0 11
13 -1 46 -6 15 -9 29 -6 31 7 7 266 -144 441 -256 602 -385 1097 -825 1513
-1345 123 -153 333 -460 407 -596 147 -269 290 -596 340 -777 10 -36 23 -63
31 -63 16 0 -8 92 -67 252 -71 192 -212 488 -288 603 -43 65 -46 71 -18 46 23
-21 32 -23 79 -17 74 9 206 42 223 56 16 13 35 72 35 108 0 17 -12 28 -56 49
-111 52 -197 169 -214 290 -14 100 22 252 56 239 8 -3 42 -6 74 -6 l57 0 7
-52 c9 -67 38 -117 84 -147 20 -14 54 -36 75 -49 50 -33 79 -75 80 -115 1 -26
-11 -47 -57 -101 -65 -77 -86 -119 -86 -170 0 -44 28 -67 118 -97 87 -29 137
-76 128 -120 -4 -22 -3 -28 7 -23 6 4 29 18 50 31 l37 23 10 -27 c18 -51 38
-77 72 -95 40 -22 74 -23 111 -3 26 14 30 13 70 -16 37 -27 48 -30 91 -26 66
6 102 45 112 117 4 27 7 50 8 50 0 0 25 -7 55 -15 36 -9 50 -10 42 -2 -6 6
-11 25 -11 42 0 39 37 83 110 134 66 45 86 76 76 117 -13 51 -101 124 -231
191 l-120 61 -6 94 c-13 187 -49 276 -172 418 -114 131 -251 203 -387 203 -92
0 -227 -26 -297 -58 -99 -45 -184 -148 -199 -242 -5 -34 -14 -46 -51 -72 -56
-40 -86 -103 -86 -182 0 -77 23 -114 111 -171 115 -76 129 -127 57 -208 -53
-59 -85 -118 -86 -157 0 -26 -1 -26 -12 -9 -7 10 -52 80 -102 155 -458 695
-1127 1315 -1950 1808 -82 49 -174 102 -202 118 -29 15 -53 31 -53 35 0 3 17
11 38 16 55 14 25 23 -33 10z"/>
<path d="M3874 5564 c-74 -27 -84 -45 -111 -216 -13 -84 -28 -168 -34 -186
-18 -56 -65 -100 -123 -117 -55 -16 -330 -156 -356 -181 -12 -12 1 -14 100
-14 62 0 111 -2 108 -5 -6 -6 -190 -39 -363 -65 -159 -24 -339 -26 -458 -4
-48 9 -91 13 -94 10 -9 -9 -48 -224 -69 -381 -10 -71 -23 -133 -28 -137 -6 -4
-23 -8 -38 -8 -21 0 -28 -5 -28 -19 0 -10 20 -142 44 -293 58 -352 112 -705
130 -842 14 -101 13 -111 -4 -152 -38 -88 -35 -145 9 -159 10 -3 29 -25 41
-48 l23 -43 -56 -104 c-30 -58 -62 -130 -71 -160 -20 -71 -55 -125 -149 -230
-43 -47 -77 -93 -77 -102 0 -11 -10 -18 -27 -20 -14 -2 -34 -14 -44 -28 -11
-14 -44 -121 -74 -238 -56 -219 -68 -251 -128 -339 -77 -114 -129 -358 -96
-451 31 -89 255 -46 295 56 20 53 55 116 159 292 110 185 110 187 89 211 -16
18 -16 19 5 19 16 0 71 49 187 167 99 100 168 163 174 157 5 -5 11 -43 15 -84
5 -59 15 -94 49 -165 24 -49 60 -110 80 -134 43 -52 69 -98 61 -110 -3 -5 2
-16 10 -25 15 -14 13 -20 -20 -63 -20 -27 -85 -100 -144 -163 -111 -119 -131
-153 -131 -226 0 -52 17 -71 73 -79 103 -15 337 54 337 99 0 30 54 77 141 123
112 60 118 73 101 223 -8 80 -8 109 4 152 24 93 13 194 -26 221 -27 19 -38 79
-50 267 -11 172 -20 221 -51 281 -10 20 -34 88 -52 152 l-35 117 70 117 c90
150 125 220 187 374 86 215 149 395 166 476 33 160 117 865 120 1005 l3 136
33 42 c27 33 31 44 22 58 -8 14 1 39 45 127 30 61 76 144 103 185 91 143 128
259 144 458 l7 82 -78 -1 c-44 0 -97 -7 -120 -15z"/>
<path d="M9179 2953 c-44 -3 -62 -9 -80 -29 -24 -26 -24 -26 -21 -237 1 -117
5 -279 8 -361 4 -85 3 -147 -2 -144 -5 2 -61 29 -124 60 -150 74 -267 108
-372 108 -105 0 -150 -14 -208 -67 -57 -51 -84 -111 -75 -163 25 -134 221
-307 540 -475 61 -32 111 -59 113 -60 1 -1 -11 -37 -27 -80 -39 -100 -53 -168
-49 -230 2 -41 7 -52 28 -62 41 -21 195 -16 260 8 164 61 207 71 282 73 67 1
78 3 78 19 0 9 4 17 9 17 5 0 56 -20 112 -44 57 -24 106 -43 110 -41 3 2 25
53 49 114 41 106 43 109 67 100 13 -5 41 -9 61 -9 35 0 189 21 258 36 l32 6 4
-133 c6 -174 6 -173 77 -165 31 3 147 9 258 13 173 5 214 3 291 -12 87 -18 92
-18 137 0 85 32 145 101 145 165 0 24 -12 44 -52 87 -63 66 -199 170 -234 179
-38 10 -29 20 32 34 132 32 311 183 378 320 81 167 85 353 9 422 -93 84 -308
54 -615 -86 l-58 -26 0 33 c0 17 7 148 16 289 9 142 13 269 10 283 -4 14 -18
33 -33 42 -25 17 -75 18 -693 19 -366 1 -690 -1 -721 -3z"/>
<path d="M1581 1640 c-2 -47 -6 -98 -10 -115 l-6 -29 -34 52 c-48 75 -49 64
-2 -22 37 -66 41 -80 41 -144 0 -39 -4 -73 -9 -76 -5 -3 -20 12 -35 34 -14 22
-29 40 -32 40 -6 0 0 -11 39 -69 l30 -44 -7 -123 c-8 -150 0 -156 62 -51 39
66 33 66 -17 -1 l-20 -27 -1 84 c0 83 1 86 55 190 60 114 58 115 -11 6 -44
-70 -44 -70 -44 -35 0 22 14 61 35 100 43 80 46 104 4 33 -17 -29 -33 -53 -36
-53 -3 0 -2 33 2 73 6 59 13 80 41 120 43 60 44 74 2 22 l-33 -39 -6 79 -5 80
-3 -85z"/>
</g>
</svg>
