<?xml version="1.0" standalone="no"?>
<!DOCTYPE svg PUBLIC "-//W3C//DTD SVG 20010904//EN"
 "http://www.w3.org/TR/2001/REC-SVG-20010904/DTD/svg10.dtd">
<svg version="1.0" xmlns="http://www.w3.org/2000/svg"
 width="626.000000pt" height="626.000000pt" viewBox="0 0 626.000000 626.000000"
 preserveAspectRatio="xMidYMid meet">
<metadata>
Created by potrace 1.14, written by Peter Selinger 2001-2017
</metadata>
<g transform="translate(0.000000,626.000000) scale(0.100000,-0.100000)"
fill="#000000" stroke="none">
<path d="M2480 4985 c-7 -9 -19 -14 -25 -11 -7 2 -18 0 -26 -6 -11 -8 -11 -9
3 -4 10 3 20 1 23 -4 4 -6 11 -10 17 -10 6 0 8 3 5 7 -4 3 0 15 10 25 9 10 14
18 11 18 -3 0 -11 -7 -18 -15z"/>
<path d="M2360 4927 c-19 -13 -45 -27 -58 -31 -12 -4 -19 -12 -16 -18 4 -6 2
-8 -3 -5 -6 4 -40 -6 -74 -22 -35 -16 -122 -52 -194 -81 -182 -74 -394 -177
-500 -242 -331 -206 -568 -525 -637 -857 -29 -138 -21 -422 16 -597 69 -325
203 -580 421 -799 194 -195 440 -339 681 -401 323 -81 685 -36 844 106 l35 31
-55 -30 c-233 -126 -640 -117 -911 20 -201 101 -440 364 -534 587 -91 216
-126 476 -91 672 54 303 208 479 571 656 271 131 419 240 517 378 47 66 56 62
20 -9 -55 -112 -215 -277 -369 -382 -50 -35 -95 -63 -99 -63 -4 0 -51 -29
-104 -65 -112 -74 -226 -190 -283 -286 -137 -234 -137 -570 2 -854 52 -106
121 -204 191 -270 l42 -40 -30 55 c-17 30 -43 91 -59 135 -25 72 -27 93 -27
215 0 113 4 144 22 194 37 99 92 188 162 258 62 62 82 74 310 186 350 171 497
274 630 439 162 200 226 478 185 808 -4 35 -13 56 -30 70 -13 11 -26 29 -29
40 -3 11 -4 5 -2 -12 1 -18 -1 -33 -6 -33 -4 0 -8 7 -8 15 0 8 -10 19 -22 25
-22 11 -22 10 -4 -4 34 -28 8 -30 -28 -2 -19 14 -44 26 -55 26 -11 0 -23 5
-26 10 -4 6 -24 18 -45 26 -22 9 -40 24 -43 36 -4 13 -11 19 -21 15 -8 -3 -18
-2 -21 3 -3 4 0 10 7 12 7 3 5 7 -6 11 -10 4 -15 3 -11 -3 9 -14 4 -13 -48 10
-25 11 -48 29 -52 39 -6 20 -24 31 -60 37 -11 2 -29 6 -40 9 -12 3 -33 -3 -55
-18z m76 -2 c23 -17 38 -19 28 -3 -4 7 -3 8 5 4 20 -13 2 -24 -38 -23 -22 0
-38 4 -35 8 2 4 14 5 27 3 l22 -5 -23 10 c-12 6 -30 8 -40 5 -14 -5 -15 -4 -2
5 20 14 33 14 56 -4z"/>
<path d="M2728 4783 c7 -3 16 -2 19 1 4 3 -2 6 -13 5 -11 0 -14 -3 -6 -6z"/>
<path d="M2926 4715 c4 -8 11 -15 16 -15 6 0 5 6 -2 15 -7 8 -14 15 -16 15 -2
0 -1 -7 2 -15z"/>
<path d="M2315 3083 c-208 -44 -365 -206 -411 -425 -39 -180 24 -380 163 -514
181 -177 525 -176 720 0 46 42 152 191 142 200 -2 2 -38 20 -79 41 -46 23 -76
33 -78 26 -10 -29 -96 -134 -133 -160 -98 -71 -256 -89 -360 -40 -102 48 -178
148 -195 257 l-7 42 144 0 c79 0 276 3 437 7 l292 6 0 51 c-1 235 -181 458
-408 505 -51 11 -186 13 -227 4z m259 -201 c88 -41 147 -103 170 -179 l7 -23
-325 0 c-179 0 -326 2 -326 5 0 3 11 27 24 53 85 164 277 225 450 144z"/>
<path d="M3543 3079 c-261 -44 -453 -274 -453 -543 0 -229 160 -433 395 -502
79 -23 246 -24 332 -1 125 33 256 121 306 206 l17 30 -67 44 -68 44 -51 -52
c-86 -90 -200 -132 -328 -122 -221 17 -367 180 -354 395 8 134 82 243 206 304
64 32 72 33 182 33 110 0 118 -2 182 -33 43 -21 83 -51 115 -85 l48 -53 68 43
c79 51 79 51 -10 145 -116 121 -323 180 -520 147z"/>
<path d="M4509 2993 c-13 -16 -12 -17 4 -4 16 13 21 21 13 21 -2 0 -10 -8 -17
-17z"/>
<path d="M4422 2914 c-18 -21 -29 -43 -25 -52 4 -13 2 -14 -4 -4 -12 16 -21 6
-57 -65 -150 -299 8 -666 325 -757 40 -12 86 -16 155 -14 91 3 97 4 81 20 -9
9 -17 20 -17 24 0 5 5 3 11 -3 7 -7 26 -10 43 -7 29 4 29 4 7 -6 -13 -6 -21
-13 -18 -16 9 -9 40 12 43 28 1 10 -7 13 -30 10 -24 -3 -28 -1 -16 7 11 8 8
10 -15 5 -29 -5 -32 -3 -55 45 -22 44 -29 50 -56 51 -44 0 -131 28 -174 55
-126 80 -197 263 -155 405 22 76 28 156 12 172 -48 49 -58 89 -30 120 9 10 14
18 11 18 -3 0 -19 -16 -36 -36z"/>
<path d="M4455 2921 c-3 -5 -2 -12 3 -15 5 -3 9 1 9 9 0 17 -3 19 -12 6z"/>
<path d="M4490 2812 c0 -15 22 -30 36 -25 11 4 12 9 3 19 -12 15 -39 19 -39 6z
m30 -12 c0 -5 -2 -10 -4 -10 -3 0 -8 5 -11 10 -3 6 -1 10 4 10 6 0 11 -4 11
-10z"/>
<path d="M4495 2761 c-3 -5 -2 -12 3 -15 5 -3 9 1 9 9 0 17 -3 19 -12 6z"/>
<path d="M3085 1554 c-174 -18 -295 -48 -295 -73 0 -20 69 -49 145 -62 119
-21 615 -18 710 4 121 28 130 31 133 52 3 27 -30 41 -148 60 -92 15 -461 28
-545 19z"/>
</g>
</svg>
